# xmcd
#
# Track frame offsets: 
#        150
#        30855
#        59299
#        81717
#        99309
#        120342
#        147364
#        163848
#        184045
#        212021
#        231927
#
# Disc length: 3577 seconds
#
# Revision: 2
# Processed by: cddbd v1.5.2PL0 Copyright (c) Steve Scherf et al.
# Submitted via: ExactAudioCopy v0.99pb5
#
DISCID=900df70b
DTITLE=Caro - Eternity
DYEAR=1900
DGENRE=Jazz
TTITLE0=WHY
TTITLE1=ETERNITY
TTITLE2=LIKE MAKIN'LOVE
TTITLE3=I NEED YOUR COMPANY
TTITLE4=DON'T EVER MAKE ME CRY
TTITLE5=LET IT RAIN
TTITLE6=MISTER MOON
TTITLE7=WANNA WAKE UP
TTITLE8=RAINBOW
TTITLE9=SHEILA
TTITLE10=THE KIND OF WOMAN YOU PREFER
EXTD=
EXTT0=
EXTT1=
EXTT2=
EXTT3=
EXTT4=
EXTT5=
EXTT6=
EXTT7=
EXTT8=
EXTT9=
EXTT10=
PLAYORDER=
